<svg width="24" height="16" viewBox="0 0 24 16" fill="current" xmlns="http://www.w3.org/2000/svg">
<path d="M19.35 6.04C18.67 2.59 15.64 0 12 0C9.11 0 6.6 1.64 5.35 4.04C2.34 4.36 0 6.91 0 10C0 11.5913 0.632141 13.1174 1.75736 14.2426C2.88258 15.3679 4.4087 16 6 16H19C19.6566 16 20.3068 15.8707 20.9134 15.6194C21.52 15.3681 22.0712 14.9998 22.5355 14.5355C22.9998 14.0712 23.3681 13.52 23.6194 12.9134C23.8707 12.3068 24 11.6566 24 11C24 8.36 21.95 6.22 19.35 6.04ZM19 14H6C4.93913 14 3.92172 13.5786 3.17157 12.8284C2.42143 12.0783 2 11.0609 2 10C2 7.95 3.53 6.24 5.56 6.03L6.63 5.92L7.13 4.97C8.08 3.14 9.94 2 12 2C14.62 2 16.88 3.86 17.39 6.43L17.69 7.93L19.22 8.04C20.78 8.14 22 9.45 22 11C22 11.7956 21.6839 12.5587 21.1213 13.1213C20.5587 13.6839 19.7956 14 19 14ZM8 9H10.55V12H13.45V9H16L12 5L8 9Z" fill="current"/>
</svg>
