<svg width="22" height="24" viewBox="0 0 22 24" fill="none" xmlns="http://www.w3.org/2000/svg">
<path d="M4.8 12H7.2V14.4H4.8V12ZM21.6 4.8V21.6C21.6 22.2365 21.3471 22.847 20.8971 23.2971C20.447 23.7471 19.8365 24 19.2 24H2.4C1.068 24 0 22.92 0 21.6V4.8C0 4.16348 0.252856 3.55303 0.702944 3.10294C1.15303 2.65286 1.76348 2.4 2.4 2.4H3.6V0H6V2.4H15.6V0H18V2.4H19.2C19.8365 2.4 20.447 2.65286 20.8971 3.10294C21.3471 3.55303 21.6 4.16348 21.6 4.8ZM2.4 7.2H19.2V4.8H2.4V7.2ZM19.2 21.6V9.6H2.4V21.6H19.2ZM14.4 14.4V12H16.8V14.4H14.4ZM9.6 14.4V12H12V14.4H9.6ZM4.8 16.8H7.2V19.2H4.8V16.8ZM14.4 19.2V16.8H16.8V19.2H14.4ZM9.6 19.2V16.8H12V19.2H9.6Z" fill="white"/>
</svg>
