<svg width="20" height="30" viewBox="0 0 20 30" fill="none" xmlns="http://www.w3.org/2000/svg">
<path d="M16.7045 23.1818H2.38636V4.09091H16.7045V23.1818ZM12.2727 27.2727H6.81818V25.9091H12.2727V27.2727ZM15 0H4.09091C3.00593 0 1.96539 0.431005 1.1982 1.1982C0.431005 1.96539 0 3.00593 0 4.09091V25.9091C0 26.9941 0.431005 28.0346 1.1982 28.8018C1.96539 29.569 3.00593 30 4.09091 30H15C16.085 30 17.1255 29.569 17.8927 28.8018C18.6599 28.0346 19.0909 26.9941 19.0909 25.9091V4.09091C19.0909 3.00593 18.6599 1.96539 17.8927 1.1982C17.1255 0.431005 16.085 0 15 0Z" fill="white"/>
</svg>
