<svg width="24" height="24" viewBox="0 0 24 24" fill="none" xmlns="http://www.w3.org/2000/svg">
<path d="M20.2691 2.18182H15.2727V0H24V8.72727H21.8182V3.72L16.5491 8.98909C17.1164 9.85091 17.4545 10.9091 17.4545 12C17.4545 14.64 15.5782 16.8436 13.0909 17.3455V19.6364H15.2727V21.8182H13.0909V24H10.9091V21.8182H8.72727V19.6364H10.9091V17.3455C8.42182 16.8436 6.54545 14.64 6.54545 12C6.54545 10.9091 6.87273 9.86182 7.44 9.01091L6.15273 7.71273L4.62545 9.22909L3.08727 7.68L4.61455 6.16364L2.18182 3.73091V7.63636H0V0H7.63636V2.18182H3.72L6.15273 4.62545L7.72364 3.06545L9.27273 4.61455L7.70182 6.17455L8.97818 7.46182C9.81818 6.88364 10.9091 6.54545 12 6.54545C13.0909 6.54545 14.1382 6.87273 15 7.45091L20.2691 2.18182ZM12 8.72727C11.132 8.72727 10.2996 9.07208 9.68583 9.68583C9.07208 10.2996 8.72727 11.132 8.72727 12C8.72727 12.868 9.07208 13.7004 9.68583 14.3142C10.2996 14.9279 11.132 15.2727 12 15.2727C12.868 15.2727 13.7004 14.9279 14.3142 14.3142C14.9279 13.7004 15.2727 12.868 15.2727 12C15.2727 11.132 14.9279 10.2996 14.3142 9.68583C13.7004 9.07208 12.868 8.72727 12 8.72727Z" fill="white"/>
</svg>
