<svg width="21" height="21" viewBox="0 0 21 21" fill="none" xmlns="http://www.w3.org/2000/svg">
<path d="M15.7725 10.0025L19.7525 6.0425C20.1425 5.6525 20.1425 5.0025 19.7525 4.6325L15.4125 0.2925C15.0425 -0.0975 14.3925 -0.0975 14.0025 0.2925L10.0425 4.2725L6.0425 0.2925C5.8425 0.1025 5.5925 0.00250003 5.3325 0.00250003C5.0825 0.00250003 4.8225 0.1025 4.6325 0.2925L0.2925 4.6325C-0.0975 5.0025 -0.0975 5.6525 0.2925 6.0425L4.2725 10.0025L0.2925 14.0025C-0.0975 14.3925 -0.0975 15.0025 0.2925 15.4125L4.6325 19.7525C5.0425 20.1425 5.6525 20.1425 6.0425 19.7525L10.0425 15.7725L14.0025 19.7525C14.2025 19.9525 14.4525 20.0425 14.7125 20.0425C14.9725 20.0425 15.2225 19.9425 15.4225 19.7525L19.7625 15.4125C20.1525 15.0025 20.1525 14.3925 19.7625 14.0025L15.7725 10.0025ZM10.0425 7.0025C10.3077 7.0025 10.5621 7.10786 10.7496 7.29539C10.9371 7.48293 11.0425 7.73728 11.0425 8.0025C11.0425 8.26772 10.9371 8.52207 10.7496 8.70961C10.5621 8.89714 10.3077 9.0025 10.0425 9.0025C9.77728 9.0025 9.52293 8.89714 9.33539 8.70961C9.14786 8.52207 9.0425 8.26772 9.0425 8.0025C9.0425 7.73728 9.14786 7.48293 9.33539 7.29539C9.52293 7.10786 9.77728 7.0025 10.0425 7.0025ZM5.3325 8.9625L1.7025 5.3425L5.3325 1.7125L8.9525 5.3325L5.3325 8.9625ZM8.0425 11.0025C7.77728 11.0025 7.52293 10.8971 7.33539 10.7096C7.14786 10.5221 7.0425 10.2677 7.0425 10.0025C7.0425 9.73728 7.14786 9.48293 7.33539 9.29539C7.52293 9.10786 7.77728 9.0025 8.0425 9.0025C8.30772 9.0025 8.56207 9.10786 8.74961 9.29539C8.93714 9.48293 9.0425 9.73728 9.0425 10.0025C9.0425 10.2677 8.93714 10.5221 8.74961 10.7096C8.56207 10.8971 8.30772 11.0025 8.0425 11.0025ZM10.0425 13.0025C9.77728 13.0025 9.52293 12.8971 9.33539 12.7096C9.14786 12.5221 9.0425 12.2677 9.0425 12.0025C9.0425 11.7373 9.14786 11.4829 9.33539 11.2954C9.52293 11.1079 9.77728 11.0025 10.0425 11.0025C10.3077 11.0025 10.5621 11.1079 10.7496 11.2954C10.9371 11.4829 11.0425 11.7373 11.0425 12.0025C11.0425 12.2677 10.9371 12.5221 10.7496 12.7096C10.5621 12.8971 10.3077 13.0025 10.0425 13.0025ZM12.0425 9.0025C12.3077 9.0025 12.5621 9.10786 12.7496 9.29539C12.9371 9.48293 13.0425 9.73728 13.0425 10.0025C13.0425 10.2677 12.9371 10.5221 12.7496 10.7096C12.5621 10.8971 12.3077 11.0025 12.0425 11.0025C11.7773 11.0025 11.5229 10.8971 11.3354 10.7096C11.1479 10.5221 11.0425 10.2677 11.0425 10.0025C11.0425 9.73728 11.1479 9.48293 11.3354 9.29539C11.5229 9.10786 11.7773 9.0025 12.0425 9.0025ZM14.7025 18.3425L11.0725 14.7225L14.7025 11.0925L18.3225 14.7125L14.7025 18.3425Z" fill="white"/>
</svg>
