<svg width="25" height="28" viewBox="0 0 25 28" fill="none" xmlns="http://www.w3.org/2000/svg">
<path d="M17.5 10C25 10 25 15 25 15V17.5H17.5V15C17.5 15 17.5 12.8875 16.0625 11C15.85 10.7125 15.5875 10.4375 15.3125 10.175C15.9625 10.075 16.675 10 17.5 10ZM0 15C0 15 0 10 7.5 10C15 10 15 15 15 15V17.5H0V15ZM8.75 20V22.5H16.25V20L20 23.75L16.25 27.5V25H8.75V27.5L5 23.75L8.75 20ZM7.5 0C5.425 0 3.75 1.675 3.75 3.75C3.75 5.825 5.425 7.5 7.5 7.5C9.575 7.5 11.25 5.825 11.25 3.75C11.25 1.675 9.575 0 7.5 0ZM17.5 0C15.425 0 13.75 1.675 13.75 3.75C13.75 5.825 15.425 7.5 17.5 7.5C19.575 7.5 21.25 5.825 21.25 3.75C21.25 1.675 19.575 0 17.5 0Z" fill="white"/>
</svg>
