<svg width="19" height="18" viewBox="0 0 19 18" fill="none" xmlns="http://www.w3.org/2000/svg">
<path d="M13.2396 11.3208H12.4029L12.1063 11.0429C13.1443 9.86964 13.7692 8.34648 13.7692 6.68954C13.7692 2.99485 10.687 0 6.8846 0C3.08218 0 0 2.99485 0 6.68954C0 10.3842 3.08218 13.3791 6.8846 13.3791C8.58986 13.3791 10.1574 12.7719 11.3649 11.7633L11.6509 12.0515V12.8645L16.9467 18L18.5249 16.4666L13.2396 11.3208ZM6.8846 11.3208C4.24727 11.3208 2.11834 9.25214 2.11834 6.68954C2.11834 4.12693 4.24727 2.05832 6.8846 2.05832C9.52193 2.05832 11.6509 4.12693 11.6509 6.68954C11.6509 9.25214 9.52193 11.3208 6.8846 11.3208Z" fill="white"/>
</svg>
