<svg width="30" height="24" viewBox="0 0 30 24" fill="none" xmlns="http://www.w3.org/2000/svg">
<path d="M15 0C9.325 0 4.175 2.225 0.3625 5.8375C0.1375 6.0625 0 6.375 0 6.725C0 7.075 0.1375 7.3875 0.3625 7.6125L3.4625 10.7125C3.6875 10.9375 4 11.075 4.375 11.075C4.6875 11.075 5 10.9375 5.225 10.725C6.2125 9.8 7.3375 9.025 8.55 8.4125C8.9625 8.2125 9.25 7.7875 9.25 7.2875V3.4125C11.0625 2.8125 12.9875 2.5 15 2.5C16.9875 2.5 18.925 2.8125 20.7375 3.4V7.275C20.7375 7.7625 21.025 8.2 21.4375 8.4C22.6625 9.0125 23.75 9.8 24.775 10.7125C25 10.9375 25.3125 11.0625 25.625 11.0625C26 11.0625 26.3125 10.925 26.5375 10.7L29.6375 7.6C29.8625 7.375 30 7.0625 30 6.7125C30 6.3625 29.85 6.0625 29.625 5.8375C25.8125 2.225 20.6625 0 15 0ZM11.25 5V8.75C11.25 8.75 3.75 15 3.75 18.75V23.75H26.25V18.75C26.25 15 18.75 8.75 18.75 8.75V5H16.25V7.5H13.75V5H11.25ZM15 11.25C16.3261 11.25 17.5979 11.7768 18.5355 12.7145C19.4732 13.6521 20 14.9239 20 16.25C20 17.5761 19.4732 18.8479 18.5355 19.7855C17.5979 20.7232 16.3261 21.25 15 21.25C13.6739 21.25 12.4021 20.7232 11.4645 19.7855C10.5268 18.8479 10 17.5761 10 16.25C10 14.9239 10.5268 13.6521 11.4645 12.7145C12.4021 11.7768 13.6739 11.25 15 11.25ZM15 13.125C14.1712 13.125 13.3763 13.4542 12.7903 14.0403C12.2042 14.6263 11.875 15.4212 11.875 16.25C11.875 17.0788 12.2042 17.8737 12.7903 18.4597C13.3763 19.0458 14.1712 19.375 15 19.375C15.8288 19.375 16.6237 19.0458 17.2097 18.4597C17.7958 17.8737 18.125 17.0788 18.125 16.25C18.125 15.4212 17.7958 14.6263 17.2097 14.0403C16.6237 13.4542 15.8288 13.125 15 13.125Z" fill="white"/>
</svg>
