<svg width="22" height="23" viewBox="0 0 22 23" fill="none" xmlns="http://www.w3.org/2000/svg">
<path d="M18.821 13.5C19.131 13.95 19.661 14.25 20.251 14.25C21.221 14.25 22.001 13.47 22.001 12.5C22.001 11.53 21.221 10.75 20.251 10.75C19.661 10.75 19.131 11.05 18.821 11.5H18.001C18.001 9.93 17.501 8.5 16.601 7.31L17.941 5.97C18.501 6.07 19.071 5.91 19.501 5.5C20.171 4.81 20.171 3.7 19.501 3C18.811 2.33 17.701 2.33 17.001 3C16.591 3.43 16.431 4 16.531 4.56L15.191 5.9C14.271 5.21 13.191 4.75 12.001 4.58V3.18C12.451 2.87 12.751 2.34 12.751 1.75C12.751 0.78 11.971 0 11.001 0C10.031 0 9.25099 0.78 9.25099 1.75C9.25099 2.34 9.55099 2.87 10.001 3.18V4.58C9.10099 4.71 8.26099 5 7.50099 5.44L6.39099 3.85C6.58099 3.33 6.53099 2.73 6.19099 2.25C5.63099 1.46 4.54099 1.26 3.75099 1.82C2.96099 2.37 2.76099 3.46 3.32099 4.25C3.66099 4.74 4.20099 5 4.75099 5L5.93099 6.68C5.50099 7.11 5.16099 7.59 4.87099 8.12C4.25099 7.88 3.50099 8 3.00099 8.5C2.33099 9.2 2.33099 10.3 3.00099 11C3.29099 11.27 3.64099 11.43 4.00099 11.5C4.00099 12.04 4.07099 12.56 4.18099 13.06L2.87099 13.41C2.45099 13.06 1.87099 12.91 1.29099 13.06C0.36099 13.31 -0.19101 14.27 0.06099 15.21C0.31099 16.14 1.28099 16.69 2.21099 16.44C2.78099 16.28 3.21099 15.86 3.39099 15.34L4.90099 14.93C5.35099 15.72 5.95099 16.42 6.65099 17L5.55099 19C5.00099 19.08 4.50099 19.39 4.21099 19.92C3.75099 20.77 4.07099 21.83 4.92099 22.29C5.77099 22.75 6.83099 22.43 7.29099 21.58C7.57099 21.06 7.56099 20.46 7.31099 19.97L8.38099 18C9.19099 18.32 10.071 18.5 11.001 18.5C11.061 18.5 11.121 18.5 11.181 18.5C11.051 18.76 11.001 19.06 11.001 19.38C11.081 20.35 11.921 21.07 12.881 21C13.841 20.93 14.571 20.08 14.501 19.12C14.461 18.62 14.211 18.18 13.851 17.89C14.321 17.68 14.771 17.41 15.191 17.1L17.531 19.44C17.431 20 17.591 20.57 18.001 21C18.701 21.67 19.801 21.67 20.501 21C21.201 20.33 21.171 19.2 20.501 18.5C20.071 18.09 19.501 17.93 18.941 18.03L16.601 15.69C17.091 15.04 17.471 14.3 17.711 13.5H18.821ZM9.50099 11.5C8.67099 11.5 8.00099 10.83 8.00099 10C8.00099 9.17 8.67099 8.5 9.50099 8.5C10.331 8.5 11.001 9.17 11.001 10C11.001 10.83 10.331 11.5 9.50099 11.5ZM13.001 14.5C12.451 14.5 12.001 14.05 12.001 13.5C12.001 12.95 12.451 12.5 13.001 12.5C13.551 12.5 14.001 12.95 14.001 13.5C14.001 14.05 13.551 14.5 13.001 14.5Z" fill="white"/>
</svg>
