<svg width="36" height="24" viewBox="0 0 36 24" fill="none" xmlns="http://www.w3.org/2000/svg">
<path d="M29.025 9.06C28.005 3.885 23.46 0 18 0C13.665 0 9.9 2.46 8.025 6.06C3.51 6.54 0 10.365 0 15C0 17.3869 0.948211 19.6761 2.63604 21.364C4.32387 23.0518 6.61305 24 9 24H28.5C29.4849 24 30.4602 23.806 31.3701 23.4291C32.2801 23.0522 33.1069 22.4997 33.8033 21.8033C34.4997 21.1069 35.0522 20.2801 35.4291 19.3701C35.806 18.4602 36 17.4849 36 16.5C36 12.54 32.925 9.33 29.025 9.06ZM28.5 21H9C7.4087 21 5.88258 20.3679 4.75736 19.2426C3.63214 18.1174 3 16.5913 3 15C3 11.925 5.295 9.36 8.34 9.045L9.945 8.88L10.695 7.455C12.12 4.71 14.91 3 18 3C21.93 3 25.32 5.79 26.085 9.645L26.535 11.895L28.83 12.06C31.17 12.21 33 14.175 33 16.5C33 17.6935 32.5259 18.8381 31.682 19.682C30.8381 20.5259 29.6935 21 28.5 21ZM12 13.5H15.825V18H20.175V13.5H24L18 7.5L12 13.5Z" fill="#4C4A66"/>
</svg>
