<svg width="23" height="24" viewBox="0 0 23 24" fill="none" xmlns="http://www.w3.org/2000/svg">
<path d="M13.2 0V9.6H22.8C22.8 7.05392 21.7886 4.61212 19.9882 2.81178C18.1879 1.01143 15.7461 0 13.2 0ZM20.784 16.668C22.044 15.048 22.8 13.008 22.8 10.8H5.328L4.2 8.4H0V10.8H2.664C2.664 10.8 4.932 15.684 5.208 16.104C3.888 16.8 3 18.204 3 19.8C3 20.9139 3.4425 21.9822 4.23015 22.7698C5.0178 23.5575 6.08609 24 7.2 24C9.312 24 11.064 22.44 11.352 20.4H13.848C14.136 22.44 15.888 24 18 24C19.1139 24 20.1822 23.5575 20.9698 22.7698C21.7575 21.9822 22.2 20.9139 22.2 19.8C22.2 18.552 21.648 17.436 20.784 16.668ZM7.2 21.6C6.72261 21.6 6.26477 21.4104 5.92721 21.0728C5.58964 20.7352 5.4 20.2774 5.4 19.8C5.4 19.3226 5.58964 18.8648 5.92721 18.5272C6.26477 18.1896 6.72261 18 7.2 18C7.67739 18 8.13523 18.1896 8.47279 18.5272C8.81036 18.8648 9 19.3226 9 19.8C9 20.2774 8.81036 20.7352 8.47279 21.0728C8.13523 21.4104 7.67739 21.6 7.2 21.6ZM18 21.6C17.5226 21.6 17.0648 21.4104 16.7272 21.0728C16.3896 20.7352 16.2 20.2774 16.2 19.8C16.2 19.3226 16.3896 18.8648 16.7272 18.5272C17.0648 18.1896 17.5226 18 18 18C18.4774 18 18.9352 18.1896 19.2728 18.5272C19.6104 18.8648 19.8 19.3226 19.8 19.8C19.8 20.2774 19.6104 20.7352 19.2728 21.0728C18.9352 21.4104 18.4774 21.6 18 21.6Z" fill="white"/>
</svg>
