<svg width="19" height="24" viewBox="0 0 19 24" fill="none" xmlns="http://www.w3.org/2000/svg">
<path d="M2.95204 20.5714H12.0949V24H2.95204V20.5714ZM17.992 12.1143C17.7749 11.8857 17.4778 11.7486 17.1463 11.7486L16.8949 11.7829L13.2378 13.7143V12.3771L13.8206 2.17143C13.8549 1.54286 13.3749 0.994286 12.7463 0.96C12.1178 0.925714 11.5692 1.40571 11.5349 2.03429L11.2263 7.39429H10.952L9.76347 7.52V1.14286C9.76347 0.839753 9.64306 0.549062 9.42873 0.334735C9.21441 0.120408 8.92372 0 8.62061 0C8.00347 0 7.47776 0.514286 7.47776 1.14286V8.46857L6.54061 8.89143L5.75204 2.65143C5.67204 2.02286 5.10061 1.57714 4.47204 1.65714C3.84347 1.71429 3.39775 2.28571 3.47776 2.93714L4.35776 9.86286L3.92347 10.0571C3.7749 10.1143 3.63776 10.2057 3.51204 10.2857L2.2549 5.84C2.07204 5.18857 1.43204 4.8 0.814898 4.96C0.209184 5.14286 -0.133674 5.80571 0.0491834 6.45714L2.98633 16.88C2.98633 16.9143 3.00918 16.96 3.02061 16.9943L3.0549 17.1429H3.06633C3.31775 17.7943 3.96918 18.2857 4.66633 18.2857H12.0949C12.5406 18.2857 12.9406 18.1029 13.2378 17.7943L18.8606 12.9943L17.992 12.1143Z" fill="white"/>
</svg>
