<svg width="2393" height="750" viewBox="0 0 2393 750" fill="none" xmlns="http://www.w3.org/2000/svg">
<g filter="url(#filter0_d_19_30)">
<path fill-rule="evenodd" clip-rule="evenodd" d="M60.1388 206H297L246.5 156H33.6452L60.1388 206Z" fill="#FCAA03"/>
</g>
<g filter="url(#filter1_d_19_30)">
<path fill-rule="evenodd" clip-rule="evenodd" d="M31.3543 151H243L192.5 101H4.86081L31.3543 151Z" fill="#FD4B02"/>
</g>
<g filter="url(#filter2_d_19_30)">
<path fill-rule="evenodd" clip-rule="evenodd" d="M243 553.978V150.5L193 101V459.615L243 553.978Z" fill="#CC3B00"/>
</g>
<g filter="url(#filter3_d_19_30)">
<path fill-rule="evenodd" clip-rule="evenodd" d="M296.851 656H297V205.5L247 156V561.919L296.851 656Z" fill="#CE8B01"/>
</g>
<g filter="url(#filter4_d_19_30)">
<path fill-rule="evenodd" clip-rule="evenodd" d="M353 559.04V151L303 200.5V651H304.273L353 559.04Z" fill="#D0BA03"/>
</g>
<g filter="url(#filter5_d_19_30)">
<path fill-rule="evenodd" clip-rule="evenodd" d="M410 449.883V93L360 142.5V544.245L410 449.883Z" fill="#74A01B"/>
</g>
<g filter="url(#filter6_d_19_30)">
<path fill-rule="evenodd" clip-rule="evenodd" d="M569.891 151H353.5L303 201H543.398L569.891 151Z" fill="#FFE300"/>
</g>
<g filter="url(#filter7_d_19_30)">
<path fill-rule="evenodd" clip-rule="evenodd" d="M598.317 93H410.5L360 143H571.824L598.317 93Z" fill="#93CC24"/>
</g>
<path d="M961 202.5V249H868.5V550H811.5V249H718.5V202.5H961ZM1075.73 314.5C1084.06 300.5 1095.06 289.667 1108.73 282C1122.73 274 1139.23 270 1158.23 270V329H1143.73C1121.39 329 1104.39 334.667 1092.73 346C1081.39 357.333 1075.73 377 1075.73 405V550H1018.73V274.5H1075.73V314.5ZM1239.62 238C1229.29 238 1220.62 234.5 1213.62 227.5C1206.62 220.5 1203.12 211.833 1203.12 201.5C1203.12 191.167 1206.62 182.5 1213.62 175.5C1220.62 168.5 1229.29 165 1239.62 165C1249.62 165 1258.12 168.5 1265.12 175.5C1272.12 182.5 1275.62 191.167 1275.62 201.5C1275.62 211.833 1272.12 220.5 1265.12 227.5C1258.12 234.5 1249.62 238 1239.62 238ZM1267.62 274.5V550H1210.62V274.5H1267.62ZM1641.96 202.5L1511.46 550H1445.46L1314.46 202.5H1375.46L1478.46 491.5L1581.96 202.5H1641.96ZM1718.63 238C1708.29 238 1699.63 234.5 1692.63 227.5C1685.63 220.5 1682.13 211.833 1682.13 201.5C1682.13 191.167 1685.63 182.5 1692.63 175.5C1699.63 168.5 1708.29 165 1718.63 165C1728.63 165 1737.13 168.5 1744.13 175.5C1751.13 182.5 1754.63 191.167 1754.63 201.5C1754.63 211.833 1751.13 220.5 1744.13 227.5C1737.13 234.5 1728.63 238 1718.63 238ZM1746.63 274.5V550H1689.63V274.5H1746.63ZM1802.46 412C1802.46 383.667 1808.13 358.833 1819.46 337.5C1831.13 315.833 1847.13 299.167 1867.46 287.5C1887.79 275.833 1911.13 270 1937.46 270C1970.79 270 1998.29 278 2019.96 294C2041.96 309.667 2056.79 332.167 2064.46 361.5H2002.96C1997.96 347.833 1989.96 337.167 1978.96 329.5C1967.96 321.833 1954.13 318 1937.46 318C1914.13 318 1895.46 326.333 1881.46 343C1867.79 359.333 1860.96 382.333 1860.96 412C1860.96 441.667 1867.79 464.833 1881.46 481.5C1895.46 498.167 1914.13 506.5 1937.46 506.5C1970.46 506.5 1992.29 492 2002.96 463H2064.46C2056.46 491 2041.46 513.333 2019.46 530C1997.46 546.333 1970.13 554.5 1937.46 554.5C1911.13 554.5 1887.79 548.667 1867.46 537C1847.13 525 1831.13 508.333 1819.46 487C1808.13 465.333 1802.46 440.333 1802.46 412ZM2373.77 405.5C2373.77 415.833 2373.1 425.167 2371.77 433.5H2161.27C2162.93 455.5 2171.1 473.167 2185.77 486.5C2200.43 499.833 2218.43 506.5 2239.77 506.5C2270.43 506.5 2292.1 493.667 2304.77 468H2366.27C2357.93 493.333 2342.77 514.167 2320.77 530.5C2299.1 546.5 2272.1 554.5 2239.77 554.5C2213.43 554.5 2189.77 548.667 2168.77 537C2148.1 525 2131.77 508.333 2119.77 487C2108.1 465.333 2102.27 440.333 2102.27 412C2102.27 383.667 2107.93 358.833 2119.27 337.5C2130.93 315.833 2147.1 299.167 2167.77 287.5C2188.77 275.833 2212.77 270 2239.77 270C2265.77 270 2288.93 275.667 2309.27 287C2329.6 298.333 2345.43 314.333 2356.77 335C2368.1 355.333 2373.77 378.833 2373.77 405.5ZM2314.27 387.5C2313.93 366.5 2306.43 349.667 2291.77 337C2277.1 324.333 2258.93 318 2237.27 318C2217.6 318 2200.77 324.333 2186.77 337C2172.77 349.333 2164.43 366.167 2161.77 387.5H2314.27Z" fill="white"/>
<defs>
<filter id="filter0_d_19_30" x="29.6453" y="156" width="271.355" height="58" filterUnits="userSpaceOnUse" color-interpolation-filters="sRGB">
<feFlood flood-opacity="0" result="BackgroundImageFix"/>
<feColorMatrix in="SourceAlpha" type="matrix" values="0 0 0 0 0 0 0 0 0 0 0 0 0 0 0 0 0 0 127 0" result="hardAlpha"/>
<feOffset dy="4"/>
<feGaussianBlur stdDeviation="2"/>
<feComposite in2="hardAlpha" operator="out"/>
<feColorMatrix type="matrix" values="0 0 0 0 0 0 0 0 0 0 0 0 0 0 0 0 0 0 0.25 0"/>
<feBlend mode="normal" in2="BackgroundImageFix" result="effect1_dropShadow_19_30"/>
<feBlend mode="normal" in="SourceGraphic" in2="effect1_dropShadow_19_30" result="shape"/>
</filter>
<filter id="filter1_d_19_30" x="0.86084" y="101" width="246.139" height="58" filterUnits="userSpaceOnUse" color-interpolation-filters="sRGB">
<feFlood flood-opacity="0" result="BackgroundImageFix"/>
<feColorMatrix in="SourceAlpha" type="matrix" values="0 0 0 0 0 0 0 0 0 0 0 0 0 0 0 0 0 0 127 0" result="hardAlpha"/>
<feOffset dy="4"/>
<feGaussianBlur stdDeviation="2"/>
<feComposite in2="hardAlpha" operator="out"/>
<feColorMatrix type="matrix" values="0 0 0 0 0 0 0 0 0 0 0 0 0 0 0 0 0 0 0.25 0"/>
<feBlend mode="normal" in2="BackgroundImageFix" result="effect1_dropShadow_19_30"/>
<feBlend mode="normal" in="SourceGraphic" in2="effect1_dropShadow_19_30" result="shape"/>
</filter>
<filter id="filter2_d_19_30" x="189" y="101" width="58" height="460.978" filterUnits="userSpaceOnUse" color-interpolation-filters="sRGB">
<feFlood flood-opacity="0" result="BackgroundImageFix"/>
<feColorMatrix in="SourceAlpha" type="matrix" values="0 0 0 0 0 0 0 0 0 0 0 0 0 0 0 0 0 0 127 0" result="hardAlpha"/>
<feOffset dy="4"/>
<feGaussianBlur stdDeviation="2"/>
<feComposite in2="hardAlpha" operator="out"/>
<feColorMatrix type="matrix" values="0 0 0 0 0 0 0 0 0 0 0 0 0 0 0 0 0 0 0.25 0"/>
<feBlend mode="normal" in2="BackgroundImageFix" result="effect1_dropShadow_19_30"/>
<feBlend mode="normal" in="SourceGraphic" in2="effect1_dropShadow_19_30" result="shape"/>
</filter>
<filter id="filter3_d_19_30" x="243" y="156" width="58" height="508" filterUnits="userSpaceOnUse" color-interpolation-filters="sRGB">
<feFlood flood-opacity="0" result="BackgroundImageFix"/>
<feColorMatrix in="SourceAlpha" type="matrix" values="0 0 0 0 0 0 0 0 0 0 0 0 0 0 0 0 0 0 127 0" result="hardAlpha"/>
<feOffset dy="4"/>
<feGaussianBlur stdDeviation="2"/>
<feComposite in2="hardAlpha" operator="out"/>
<feColorMatrix type="matrix" values="0 0 0 0 0 0 0 0 0 0 0 0 0 0 0 0 0 0 0.25 0"/>
<feBlend mode="normal" in2="BackgroundImageFix" result="effect1_dropShadow_19_30"/>
<feBlend mode="normal" in="SourceGraphic" in2="effect1_dropShadow_19_30" result="shape"/>
</filter>
<filter id="filter4_d_19_30" x="299" y="151" width="58" height="508" filterUnits="userSpaceOnUse" color-interpolation-filters="sRGB">
<feFlood flood-opacity="0" result="BackgroundImageFix"/>
<feColorMatrix in="SourceAlpha" type="matrix" values="0 0 0 0 0 0 0 0 0 0 0 0 0 0 0 0 0 0 127 0" result="hardAlpha"/>
<feOffset dy="4"/>
<feGaussianBlur stdDeviation="2"/>
<feComposite in2="hardAlpha" operator="out"/>
<feColorMatrix type="matrix" values="0 0 0 0 0 0 0 0 0 0 0 0 0 0 0 0 0 0 0.25 0"/>
<feBlend mode="normal" in2="BackgroundImageFix" result="effect1_dropShadow_19_30"/>
<feBlend mode="normal" in="SourceGraphic" in2="effect1_dropShadow_19_30" result="shape"/>
</filter>
<filter id="filter5_d_19_30" x="356" y="93" width="58" height="459.245" filterUnits="userSpaceOnUse" color-interpolation-filters="sRGB">
<feFlood flood-opacity="0" result="BackgroundImageFix"/>
<feColorMatrix in="SourceAlpha" type="matrix" values="0 0 0 0 0 0 0 0 0 0 0 0 0 0 0 0 0 0 127 0" result="hardAlpha"/>
<feOffset dy="4"/>
<feGaussianBlur stdDeviation="2"/>
<feComposite in2="hardAlpha" operator="out"/>
<feColorMatrix type="matrix" values="0 0 0 0 0 0 0 0 0 0 0 0 0 0 0 0 0 0 0.25 0"/>
<feBlend mode="normal" in2="BackgroundImageFix" result="effect1_dropShadow_19_30"/>
<feBlend mode="normal" in="SourceGraphic" in2="effect1_dropShadow_19_30" result="shape"/>
</filter>
<filter id="filter6_d_19_30" x="299" y="151" width="274.891" height="58" filterUnits="userSpaceOnUse" color-interpolation-filters="sRGB">
<feFlood flood-opacity="0" result="BackgroundImageFix"/>
<feColorMatrix in="SourceAlpha" type="matrix" values="0 0 0 0 0 0 0 0 0 0 0 0 0 0 0 0 0 0 127 0" result="hardAlpha"/>
<feOffset dy="4"/>
<feGaussianBlur stdDeviation="2"/>
<feComposite in2="hardAlpha" operator="out"/>
<feColorMatrix type="matrix" values="0 0 0 0 0 0 0 0 0 0 0 0 0 0 0 0 0 0 0.25 0"/>
<feBlend mode="normal" in2="BackgroundImageFix" result="effect1_dropShadow_19_30"/>
<feBlend mode="normal" in="SourceGraphic" in2="effect1_dropShadow_19_30" result="shape"/>
</filter>
<filter id="filter7_d_19_30" x="356" y="93" width="246.317" height="58" filterUnits="userSpaceOnUse" color-interpolation-filters="sRGB">
<feFlood flood-opacity="0" result="BackgroundImageFix"/>
<feColorMatrix in="SourceAlpha" type="matrix" values="0 0 0 0 0 0 0 0 0 0 0 0 0 0 0 0 0 0 127 0" result="hardAlpha"/>
<feOffset dy="4"/>
<feGaussianBlur stdDeviation="2"/>
<feComposite in2="hardAlpha" operator="out"/>
<feColorMatrix type="matrix" values="0 0 0 0 0 0 0 0 0 0 0 0 0 0 0 0 0 0 0.25 0"/>
<feBlend mode="normal" in2="BackgroundImageFix" result="effect1_dropShadow_19_30"/>
<feBlend mode="normal" in="SourceGraphic" in2="effect1_dropShadow_19_30" result="shape"/>
</filter>
</defs>
</svg>
