<svg width="27" height="30" viewBox="0 0 27 30" fill="none" xmlns="http://www.w3.org/2000/svg">
<path d="M14.2857 20C14.2857 21.5857 13.0143 22.8571 11.4286 22.8571C9.84286 22.8571 8.57143 21.5714 8.57143 20C8.57143 18.4143 9.84286 17.1429 11.4286 17.1429C13.0143 17.1429 14.2857 18.4286 14.2857 20ZM12.9857 27.1429C13.1571 28.1714 13.5143 29.1286 14.0143 30H2.85714C1.27143 30 0 28.7143 0 27.1429V12.8571C0 11.2714 1.27143 10 2.85714 10H4.28571V7.14286C4.28571 3.2 7.48571 0 11.4286 0C15.3714 0 18.5714 3.2 18.5714 7.14286V10H20C21.5857 10 22.8571 11.2857 22.8571 12.8571V17.2714C22.3857 17.2 21.9143 17.1429 21.4286 17.1429C20.9429 17.1429 20.4714 17.2 20 17.2714V12.8571H2.85714V27.1429H12.9857ZM7.14286 10H15.7143V7.14286C15.7143 4.77143 13.8 2.85714 11.4286 2.85714C9.05714 2.85714 7.14286 4.77143 7.14286 7.14286V10ZM24.7714 21.2L19.6429 26.3286L17.3714 24.0571L15.7143 25.7143L19.6429 30L26.4286 23.2143L24.7714 21.2Z" fill="white"/>
</svg>
